<svg width="14" height="10" viewBox="0 0 14 10" fill="none" xmlns="http://www.w3.org/2000/svg">
<path d="M1.66667 3.33333C1.20833 3.33333 0.815972 3.17014 0.489583 2.84375C0.163194 2.51736 0 2.125 0 1.66667C0 1.20833 0.163194 0.815972 0.489583 0.489583C0.815972 0.163194 1.20833 0 1.66667 0C2.125 0 2.51736 0.163194 2.84375 0.489583C3.17014 0.815972 3.33333 1.20833 3.33333 1.66667C3.33333 2.125 3.17014 2.51736 2.84375 2.84375C2.51736 3.17014 2.125 3.33333 1.66667 3.33333V3.33333M6.66667 3.33333C6.20833 3.33333 5.81597 3.17014 5.48958 2.84375C5.16319 2.51736 5 2.125 5 1.66667C5 1.20833 5.16319 0.815972 5.48958 0.489583C5.81597 0.163194 6.20833 0 6.66667 0C7.125 0 7.51736 0.163194 7.84375 0.489583C8.17014 0.815972 8.33333 1.20833 8.33333 1.66667C8.33333 2.125 8.17014 2.51736 7.84375 2.84375C7.51736 3.17014 7.125 3.33333 6.66667 3.33333V3.33333M11.6667 3.33333C11.2083 3.33333 10.816 3.17014 10.4896 2.84375C10.1632 2.51736 10 2.125 10 1.66667C10 1.20833 10.1632 0.815972 10.4896 0.489583C10.816 0.163194 11.2083 0 11.6667 0C12.125 0 12.5174 0.163194 12.8438 0.489583C13.1701 0.815972 13.3333 1.20833 13.3333 1.66667C13.3333 2.125 13.1701 2.51736 12.8438 2.84375C12.5174 3.17014 12.125 3.33333 11.6667 3.33333V3.33333" fill="#464554"/>
</svg>
