<svg width="32" height="32" viewBox="0 0 32 32" fill="none" xmlns="http://www.w3.org/2000/svg">
<rect width="32" height="32" rx="8" fill="#5856DE"/>
<path d="M14.3228 22.6667C12.4616 22.6667 10.8818 22.0208 9.58317 20.7292C8.28456 19.4375 7.63525 17.8611 7.63525 16C7.63525 14.1389 8.28456 12.5625 9.58317 11.2708C10.8818 9.97917 12.4616 9.33334 14.3228 9.33334H17.6769C19.538 9.33334 21.1179 9.97917 22.4165 11.2708C23.7151 12.5625 24.3644 14.1389 24.3644 16C24.3644 17.8611 23.7151 19.4375 22.4165 20.7292C21.1179 22.0208 19.538 22.6667 17.6769 22.6667H14.3228V22.6667M14.8228 17.3958L13.0519 15.625C12.8991 15.4583 12.7082 15.375 12.479 15.375C12.2498 15.375 12.0519 15.4583 11.8853 15.625C11.7186 15.7917 11.6353 15.9896 11.6353 16.2188C11.6353 16.4479 11.7186 16.6389 11.8853 16.7917L13.9478 18.8542C14.1978 19.1042 14.4964 19.2292 14.8436 19.2292C15.1908 19.2292 15.4825 19.1042 15.7186 18.8542L20.1353 14.4375C20.3019 14.2847 20.3853 14.0903 20.3853 13.8542C20.3853 13.6181 20.3019 13.4236 20.1353 13.2708C19.9686 13.1042 19.7707 13.0208 19.5415 13.0208C19.3123 13.0208 19.1144 13.1042 18.9478 13.2708L14.8228 17.3958V17.3958" fill="white"/>
</svg>
