<svg width="27" height="15" viewBox="0 0 27 15" fill="none" xmlns="http://www.w3.org/2000/svg">
<path d="M8.33333 5V0H15V5H8.33333V5M0 8.33333V0H6.66667V8.33333H0V8.33333M8.33333 15V6.66667H15V15H8.33333V15M0 15V10H6.66667V15H0V15M1.66667 6.66667H5V1.66667H1.66667V6.66667V6.66667M10 13.3333H13.3333V8.33333H10V13.3333V13.3333M10 3.33333H13.3333V1.66667H10V3.33333V3.33333M1.66667 13.3333H5V11.6667H1.66667V13.3333V13.3333M5 6.66667V6.66667V6.66667V6.66667V6.66667V6.66667M10 3.33333V3.33333V3.33333V3.33333V3.33333V3.33333M10 8.33333V8.33333V8.33333V8.33333V8.33333V8.33333M5 11.6667V11.6667V11.6667V11.6667V11.6667V11.6667" fill="white"/>
</svg>
