<svg width="17" height="17" viewBox="0 0 17 17" fill="none" xmlns="http://www.w3.org/2000/svg">
<path d="M6.08333 16.6667L5.75 14C5.56944 13.9306 5.39931 13.8472 5.23958 13.75C5.07986 13.6528 4.92361 13.5486 4.77083 13.4375L2.29167 14.4792L0 10.5208L2.14583 8.89583C2.13194 8.79861 2.125 8.70486 2.125 8.61458C2.125 8.52431 2.125 8.43056 2.125 8.33333C2.125 8.23611 2.125 8.14236 2.125 8.05208C2.125 7.96181 2.13194 7.86806 2.14583 7.77083L0 6.14583L2.29167 2.1875L4.77083 3.22917C4.92361 3.11806 5.08333 3.01389 5.25 2.91667C5.41667 2.81944 5.58333 2.73611 5.75 2.66667L6.08333 0H10.6667L11 2.66667C11.1806 2.73611 11.3507 2.81944 11.5104 2.91667C11.6701 3.01389 11.8264 3.11806 11.9792 3.22917L14.4583 2.1875L16.75 6.14583L14.6042 7.77083C14.6181 7.86806 14.625 7.96181 14.625 8.05208C14.625 8.14236 14.625 8.23611 14.625 8.33333C14.625 8.43056 14.625 8.52431 14.625 8.61458C14.625 8.70486 14.6111 8.79861 14.5833 8.89583L16.7292 10.5208L14.4375 14.4792L11.9792 13.4375C11.8264 13.5486 11.6667 13.6528 11.5 13.75C11.3333 13.8472 11.1667 13.9306 11 14L10.6667 16.6667H6.08333V16.6667M7.54167 15H9.1875L9.47917 12.7917C9.90972 12.6806 10.309 12.5174 10.6771 12.3021C11.0451 12.0868 11.3819 11.8264 11.6875 11.5208L13.75 12.375L14.5625 10.9583L12.7708 9.60417C12.8403 9.40972 12.8889 9.20486 12.9167 8.98958C12.9444 8.77431 12.9583 8.55556 12.9583 8.33333C12.9583 8.11111 12.9444 7.89236 12.9167 7.67708C12.8889 7.46181 12.8403 7.25694 12.7708 7.0625L14.5625 5.70833L13.75 4.29167L11.6875 5.16667C11.3819 4.84722 11.0451 4.57986 10.6771 4.36458C10.309 4.14931 9.90972 3.98611 9.47917 3.875L9.20833 1.66667H7.5625L7.27083 3.875C6.84028 3.98611 6.44097 4.14931 6.07292 4.36458C5.70486 4.57986 5.36806 4.84028 5.0625 5.14583L3 4.29167L2.1875 5.70833L3.97917 7.04167C3.90972 7.25 3.86111 7.45833 3.83333 7.66667C3.80556 7.875 3.79167 8.09722 3.79167 8.33333C3.79167 8.55556 3.80556 8.77083 3.83333 8.97917C3.86111 9.1875 3.90972 9.39583 3.97917 9.60417L2.1875 10.9583L3 12.375L5.0625 11.5C5.36806 11.8194 5.70486 12.0868 6.07292 12.3021C6.44097 12.5174 6.84028 12.6806 7.27083 12.7917L7.54167 15V15M8.41667 11.25C9.22222 11.25 9.90972 10.9653 10.4792 10.3958C11.0486 9.82639 11.3333 9.13889 11.3333 8.33333C11.3333 7.52778 11.0486 6.84028 10.4792 6.27083C9.90972 5.70139 9.22222 5.41667 8.41667 5.41667C7.59722 5.41667 6.90625 5.70139 6.34375 6.27083C5.78125 6.84028 5.5 7.52778 5.5 8.33333C5.5 9.13889 5.78125 9.82639 6.34375 10.3958C6.90625 10.9653 7.59722 11.25 8.41667 11.25V11.25M8.375 8.33333V8.33333V8.33333V8.33333V8.33333V8.33333V8.33333V8.33333V8.33333V8.33333V8.33333V8.33333V8.33333V8.33333V8.33333V8.33333V8.33333V8.33333V8.33333V8.33333V8.33333V8.33333V8.33333V8.33333V8.33333V8.33333V8.33333V8.33333V8.33333V8.33333V8.33333V8.33333V8.33333V8.33333V8.33333V8.33333" fill="#C7C4D7"/>
</svg>
